
<svg width="358" height="144" viewBox="0 0 358 144" fill="none" xmlns="http://www.w3.org/2000/svg">
<path d="M83.5419 73.5625C83.4889 73.0663 83.2654 72.6799 82.8714 72.4034C82.4813 72.1269 81.9737 71.9886 81.3487 71.9886C80.9093 71.9886 80.5324 72.0549 80.218 72.1875C79.9036 72.3201 79.6631 72.5 79.4964 72.7273C79.3298 72.9545 79.2446 73.214 79.2408 73.5057C79.2408 73.7481 79.2957 73.9583 79.4055 74.1364C79.5192 74.3144 79.6726 74.4659 79.8658 74.5909C80.0589 74.7121 80.273 74.8144 80.5078 74.8977C80.7427 74.9811 80.9794 75.0511 81.218 75.108L82.3089 75.3807C82.7483 75.483 83.1707 75.6212 83.576 75.7955C83.9851 75.9697 84.3506 76.1894 84.6726 76.4545C84.9983 76.7197 85.2559 77.0398 85.4453 77.4148C85.6347 77.7898 85.7294 78.2292 85.7294 78.733C85.7294 79.4148 85.5552 80.0152 85.2067 80.5341C84.8582 81.0492 84.3544 81.4527 83.6953 81.7443C83.04 82.0322 82.2464 82.1761 81.3146 82.1761C80.4093 82.1761 79.6233 82.036 78.9567 81.7557C78.2938 81.4754 77.7749 81.0663 77.3999 80.5284C77.0286 79.9905 76.8279 79.3352 76.7976 78.5625H78.8714C78.9018 78.9678 79.0268 79.3049 79.2464 79.5739C79.4661 79.8428 79.7521 80.0436 80.1044 80.1761C80.4605 80.3087 80.8582 80.375 81.2976 80.375C81.7559 80.375 82.1574 80.3068 82.5021 80.1705C82.8506 80.0303 83.1233 79.8371 83.3203 79.5909C83.5173 79.3409 83.6177 79.0492 83.6214 78.7159C83.6177 78.4129 83.5286 78.1629 83.3544 77.9659C83.1802 77.7652 82.9358 77.5985 82.6214 77.4659C82.3108 77.3295 81.9472 77.2083 81.5305 77.1023L80.2067 76.7614C79.2483 76.5152 78.4908 76.142 77.9339 75.642C77.3809 75.1383 77.1044 74.4697 77.1044 73.6364C77.1044 72.9508 77.29 72.3504 77.6612 71.8352C78.0362 71.3201 78.5457 70.9205 79.1896 70.6364C79.8336 70.3485 80.5627 70.2045 81.3771 70.2045C82.2029 70.2045 82.9264 70.3485 83.5476 70.6364C84.1726 70.9205 84.6631 71.3163 85.0192 71.8239C85.3752 72.3277 85.5589 72.9072 85.5703 73.5625H83.5419ZM91.8757 73.2727V74.8636H86.8587V73.2727H91.8757ZM88.0973 71.1818H90.1541V79.375C90.1541 79.6515 90.1958 79.8636 90.2791 80.0114C90.3662 80.1553 90.4799 80.2538 90.62 80.3068C90.7602 80.3598 90.9155 80.3864 91.0859 80.3864C91.2147 80.3864 91.3321 80.3769 91.4382 80.358C91.5481 80.339 91.6314 80.322 91.6882 80.3068L92.0348 81.9148C91.925 81.9527 91.7678 81.9943 91.5632 82.0398C91.3625 82.0852 91.1162 82.1117 90.8246 82.1193C90.3094 82.1345 89.8454 82.0568 89.4325 81.8864C89.0196 81.7121 88.692 81.4432 88.4496 81.0795C88.2109 80.7159 88.0935 80.2614 88.0973 79.7159V71.1818ZM96.1072 82.1761C95.5542 82.1761 95.0561 82.0777 94.6129 81.8807C94.1735 81.6799 93.825 81.3845 93.5675 80.9943C93.3137 80.6042 93.1868 80.1231 93.1868 79.5511C93.1868 79.0587 93.2777 78.6515 93.4595 78.3295C93.6413 78.0076 93.8894 77.75 94.2038 77.5568C94.5182 77.3636 94.8724 77.2178 95.2663 77.1193C95.6641 77.017 96.075 76.9432 96.4993 76.8977C97.0107 76.8447 97.4254 76.7973 97.7436 76.7557C98.0618 76.7102 98.2929 76.642 98.4368 76.5511C98.5845 76.4564 98.6584 76.3106 98.6584 76.1136V76.0795C98.6584 75.6515 98.5315 75.3201 98.2777 75.0852C98.0239 74.8504 97.6584 74.733 97.1811 74.733C96.6773 74.733 96.2777 74.8428 95.9822 75.0625C95.6906 75.2822 95.4936 75.5417 95.3913 75.8409L93.4709 75.5682C93.6224 75.0379 93.8724 74.5947 94.2209 74.2386C94.5694 73.8788 94.9955 73.6098 95.4993 73.4318C96.0031 73.25 96.5599 73.1591 97.1697 73.1591C97.5902 73.1591 98.0088 73.2083 98.4254 73.3068C98.8421 73.4053 99.2228 73.5682 99.5675 73.7955C99.9122 74.0189 100.189 74.3239 100.397 74.7102C100.609 75.0966 100.715 75.5795 100.715 76.1591V82H98.7379V80.8011H98.6697C98.5447 81.0436 98.3686 81.2708 98.1413 81.483C97.9179 81.6913 97.6357 81.8598 97.2947 81.9886C96.9576 82.1136 96.5618 82.1761 96.1072 82.1761ZM96.6413 80.6648C97.0542 80.6648 97.4122 80.5833 97.7152 80.4205C98.0182 80.2538 98.2512 80.0341 98.4141 79.7614C98.5807 79.4886 98.6641 79.1913 98.6641 78.8693V77.8409C98.5997 77.8939 98.4898 77.9432 98.3345 77.9886C98.183 78.0341 98.0125 78.0739 97.8232 78.108C97.6338 78.142 97.4463 78.1723 97.2607 78.1989C97.075 78.2254 96.9141 78.2481 96.7777 78.267C96.4709 78.3087 96.1963 78.3769 95.9538 78.4716C95.7114 78.5663 95.5201 78.6989 95.38 78.8693C95.2398 79.036 95.1697 79.2519 95.1697 79.517C95.1697 79.8958 95.308 80.1818 95.5845 80.375C95.861 80.5682 96.2133 80.6648 96.6413 80.6648ZM102.783 82V73.2727H104.778V74.7273H104.869C105.028 74.2235 105.3 73.8352 105.687 73.5625C106.077 73.286 106.522 73.1477 107.022 73.1477C107.136 73.1477 107.263 73.1534 107.403 73.1648C107.547 73.1723 107.666 73.1856 107.761 73.2045V75.0966C107.674 75.0663 107.535 75.0398 107.346 75.017C107.16 74.9905 106.98 74.9773 106.806 74.9773C106.431 74.9773 106.094 75.0587 105.795 75.2216C105.499 75.3807 105.266 75.6023 105.096 75.8864C104.925 76.1705 104.84 76.4981 104.84 76.8693V82H102.783ZM113.954 73.2727V74.8636H108.937V73.2727H113.954ZM110.175 71.1818H112.232V79.375C112.232 79.6515 112.274 79.8636 112.357 80.0114C112.444 80.1553 112.558 80.2538 112.698 80.3068C112.838 80.3598 112.994 80.3864 113.164 80.3864C113.293 80.3864 113.41 80.3769 113.516 80.358C113.626 80.339 113.71 80.322 113.766 80.3068L114.113 81.9148C114.003 81.9527 113.846 81.9943 113.641 82.0398C113.441 82.0852 113.194 82.1117 112.903 82.1193C112.388 82.1345 111.924 82.0568 111.511 81.8864C111.098 81.7121 110.77 81.4432 110.528 81.0795C110.289 80.7159 110.172 80.2614 110.175 79.7159V71.1818ZM119.734 82V70.3636H121.79V74.7159H121.876C121.982 74.5038 122.131 74.2784 122.325 74.0398C122.518 73.7973 122.779 73.5909 123.109 73.4205C123.438 73.2462 123.859 73.1591 124.37 73.1591C125.044 73.1591 125.652 73.3314 126.194 73.6761C126.739 74.017 127.171 74.5227 127.489 75.1932C127.811 75.8598 127.972 76.678 127.972 77.6477C127.972 78.6061 127.815 79.4205 127.501 80.0909C127.186 80.7614 126.758 81.2727 126.217 81.625C125.675 81.9773 125.061 82.1534 124.376 82.1534C123.876 82.1534 123.461 82.0701 123.131 81.9034C122.802 81.7367 122.537 81.536 122.336 81.3011C122.139 81.0625 121.986 80.8371 121.876 80.625H121.756V82H119.734ZM121.751 77.6364C121.751 78.2008 121.83 78.6951 121.989 79.1193C122.152 79.5436 122.385 79.875 122.688 80.1136C122.995 80.3485 123.366 80.4659 123.802 80.4659C124.256 80.4659 124.637 80.3447 124.944 80.1023C125.251 79.8561 125.482 79.5208 125.637 79.0966C125.796 78.6686 125.876 78.1818 125.876 77.6364C125.876 77.0947 125.798 76.6136 125.643 76.1932C125.487 75.7727 125.256 75.4432 124.95 75.2045C124.643 74.9659 124.26 74.8466 123.802 74.8466C123.362 74.8466 122.989 74.9621 122.683 75.1932C122.376 75.4242 122.143 75.7481 121.984 76.1648C121.828 76.5814 121.751 77.072 121.751 77.6364ZM130.702 85.2727C130.422 85.2727 130.163 85.25 129.924 85.2045C129.689 85.1629 129.502 85.1136 129.362 85.0568L129.839 83.4545C130.138 83.5417 130.405 83.5833 130.64 83.5795C130.875 83.5758 131.081 83.5019 131.259 83.358C131.441 83.2178 131.594 82.983 131.719 82.6534L131.896 82.1818L128.731 73.2727H130.913L132.924 79.8636H133.015L135.032 73.2727H137.219L133.725 83.0568C133.562 83.5189 133.346 83.9148 133.077 84.2443C132.808 84.5777 132.479 84.8314 132.089 85.0057C131.702 85.1837 131.24 85.2727 130.702 85.2727ZM146.418 82.1705C145.547 82.1705 144.799 81.9792 144.174 81.5966C143.553 81.214 143.074 80.6856 142.737 80.0114C142.403 79.3333 142.237 78.553 142.237 77.6705C142.237 76.7841 142.407 76.0019 142.748 75.3239C143.089 74.642 143.57 74.1117 144.191 73.733C144.816 73.3504 145.555 73.1591 146.407 73.1591C147.115 73.1591 147.742 73.2898 148.288 73.5511C148.837 73.8087 149.274 74.1742 149.6 74.6477C149.926 75.1174 150.112 75.6667 150.157 76.2955H148.191C148.112 75.875 147.922 75.5246 147.623 75.2443C147.327 74.9602 146.932 74.8182 146.435 74.8182C146.015 74.8182 145.646 74.9318 145.327 75.1591C145.009 75.3826 144.761 75.7045 144.583 76.125C144.409 76.5455 144.322 77.0492 144.322 77.6364C144.322 78.2311 144.409 78.7424 144.583 79.1705C144.757 79.5947 145.002 79.9223 145.316 80.1534C145.634 80.3807 146.007 80.4943 146.435 80.4943C146.738 80.4943 147.009 80.4375 147.248 80.3239C147.49 80.2064 147.693 80.0379 147.856 79.8182C148.019 79.5985 148.13 79.3314 148.191 79.017H150.157C150.108 79.6345 149.926 80.1818 149.612 80.6591C149.297 81.1326 148.869 81.5038 148.327 81.7727C147.786 82.0379 147.149 82.1705 146.418 82.1705ZM151.846 82V73.2727H153.84V74.7273H153.931C154.09 74.2235 154.363 73.8352 154.749 73.5625C155.139 73.286 155.585 73.1477 156.085 73.1477C156.198 73.1477 156.325 73.1534 156.465 73.1648C156.609 73.1723 156.728 73.1856 156.823 73.2045V75.0966C156.736 75.0663 156.598 75.0398 156.408 75.017C156.223 74.9905 156.043 74.9773 155.869 74.9773C155.494 74.9773 155.156 75.0587 154.857 75.2216C154.562 75.3807 154.329 75.6023 154.158 75.8864C153.988 76.1705 153.903 76.4981 153.903 76.8693V82H151.846ZM161.694 82.1705C160.819 82.1705 160.063 81.9886 159.427 81.625C158.794 81.2576 158.308 80.7386 157.967 80.0682C157.626 79.3939 157.455 78.6004 157.455 77.6875C157.455 76.7898 157.626 76.0019 157.967 75.3239C158.311 74.642 158.792 74.1117 159.41 73.733C160.027 73.3504 160.753 73.1591 161.586 73.1591C162.124 73.1591 162.631 73.2462 163.109 73.4205C163.59 73.5909 164.014 73.8561 164.381 74.2159C164.753 74.5758 165.044 75.0341 165.256 75.5909C165.469 76.1439 165.575 76.803 165.575 77.5682V78.1989H158.421V76.8125H163.603C163.599 76.4186 163.514 76.0682 163.347 75.7614C163.181 75.4508 162.948 75.2064 162.648 75.0284C162.353 74.8504 162.008 74.7614 161.614 74.7614C161.194 74.7614 160.825 74.8636 160.506 75.0682C160.188 75.2689 159.94 75.5341 159.762 75.8636C159.588 76.1894 159.499 76.5473 159.495 76.9375V78.1477C159.495 78.6553 159.588 79.0909 159.773 79.4545C159.959 79.8144 160.219 80.0909 160.552 80.2841C160.885 80.4735 161.275 80.5682 161.722 80.5682C162.022 80.5682 162.292 80.5265 162.535 80.4432C162.777 80.3561 162.987 80.2292 163.165 80.0625C163.344 79.8958 163.478 79.6894 163.569 79.4432L165.489 79.6591C165.368 80.1667 165.137 80.6098 164.796 80.9886C164.459 81.3636 164.027 81.6553 163.501 81.8636C162.974 82.0682 162.372 82.1705 161.694 82.1705ZM169.826 82.1761C169.273 82.1761 168.775 82.0777 168.332 81.8807C167.892 81.6799 167.544 81.3845 167.286 80.9943C167.032 80.6042 166.906 80.1231 166.906 79.5511C166.906 79.0587 166.996 78.6515 167.178 78.3295C167.36 78.0076 167.608 77.75 167.923 77.5568C168.237 77.3636 168.591 77.2178 168.985 77.1193C169.383 77.017 169.794 76.9432 170.218 76.8977C170.729 76.8447 171.144 76.7973 171.462 76.7557C171.781 76.7102 172.012 76.642 172.156 76.5511C172.303 76.4564 172.377 76.3106 172.377 76.1136V76.0795C172.377 75.6515 172.25 75.3201 171.996 75.0852C171.743 74.8504 171.377 74.733 170.9 74.733C170.396 74.733 169.996 74.8428 169.701 75.0625C169.409 75.2822 169.212 75.5417 169.11 75.8409L167.19 75.5682C167.341 75.0379 167.591 74.5947 167.94 74.2386C168.288 73.8788 168.714 73.6098 169.218 73.4318C169.722 73.25 170.279 73.1591 170.888 73.1591C171.309 73.1591 171.728 73.2083 172.144 73.3068C172.561 73.4053 172.942 73.5682 173.286 73.7955C173.631 74.0189 173.907 74.3239 174.116 74.7102C174.328 75.0966 174.434 75.5795 174.434 76.1591V82H172.457V80.8011H172.388C172.263 81.0436 172.087 81.2708 171.86 81.483C171.637 81.6913 171.354 81.8598 171.013 81.9886C170.676 82.1136 170.281 82.1761 169.826 82.1761ZM170.36 80.6648C170.773 80.6648 171.131 80.5833 171.434 80.4205C171.737 80.2538 171.97 80.0341 172.133 79.7614C172.299 79.4886 172.383 79.1913 172.383 78.8693V77.8409C172.318 77.8939 172.209 77.9432 172.053 77.9886C171.902 78.0341 171.731 78.0739 171.542 78.108C171.353 78.142 171.165 78.1723 170.979 78.1989C170.794 78.2254 170.633 78.2481 170.496 78.267C170.19 78.3087 169.915 78.3769 169.673 78.4716C169.43 78.5663 169.239 78.6989 169.099 78.8693C168.959 79.036 168.888 79.2519 168.888 79.517C168.888 79.8958 169.027 80.1818 169.303 80.375C169.58 80.5682 169.932 80.6648 170.36 80.6648ZM180.86 73.2727V74.8636H175.843V73.2727H180.86ZM177.082 71.1818H179.138V79.375C179.138 79.6515 179.18 79.8636 179.263 80.0114C179.351 80.1553 179.464 80.2538 179.604 80.3068C179.745 80.3598 179.9 80.3864 180.07 80.3864C180.199 80.3864 180.317 80.3769 180.423 80.358C180.532 80.339 180.616 80.322 180.673 80.3068L181.019 81.9148C180.909 81.9527 180.752 81.9943 180.548 82.0398C180.347 82.0852 180.101 82.1117 179.809 82.1193C179.294 82.1345 178.83 82.0568 178.417 81.8864C178.004 81.7121 177.676 81.4432 177.434 81.0795C177.195 80.7159 177.078 80.2614 177.082 79.7159V71.1818ZM182.58 82V73.2727H184.637V82H182.58ZM183.614 72.0341C183.289 72.0341 183.008 71.9261 182.773 71.7102C182.539 71.4905 182.421 71.2273 182.421 70.9205C182.421 70.6098 182.539 70.3466 182.773 70.1307C183.008 69.911 183.289 69.8011 183.614 69.8011C183.944 69.8011 184.224 69.911 184.455 70.1307C184.69 70.3466 184.808 70.6098 184.808 70.9205C184.808 71.2273 184.69 71.4905 184.455 71.7102C184.224 71.9261 183.944 72.0341 183.614 72.0341ZM188.809 76.8864V82H186.752V73.2727H188.718V74.7557H188.82C189.021 74.267 189.341 73.8788 189.781 73.5909C190.224 73.303 190.771 73.1591 191.423 73.1591C192.025 73.1591 192.549 73.2879 192.996 73.5455C193.447 73.803 193.796 74.1761 194.042 74.6648C194.292 75.1534 194.415 75.7462 194.411 76.4432V82H192.354V76.7614C192.354 76.178 192.203 75.7216 191.9 75.392C191.601 75.0625 191.186 74.8977 190.656 74.8977C190.296 74.8977 189.976 74.9773 189.695 75.1364C189.419 75.2917 189.201 75.517 189.042 75.8125C188.887 76.108 188.809 76.4659 188.809 76.8864ZM200.298 85.4545C199.559 85.4545 198.924 85.3542 198.394 85.1534C197.864 84.9564 197.438 84.6913 197.116 84.358C196.794 84.0246 196.57 83.6553 196.445 83.25L198.298 82.8011C198.381 82.9716 198.502 83.1402 198.661 83.3068C198.82 83.4773 199.034 83.6174 199.303 83.7273C199.576 83.8409 199.919 83.8977 200.332 83.8977C200.915 83.8977 201.398 83.7557 201.781 83.4716C202.163 83.1913 202.354 82.7292 202.354 82.0852V80.4318H202.252C202.146 80.6439 201.991 80.8617 201.786 81.0852C201.585 81.3087 201.318 81.4962 200.985 81.6477C200.656 81.7992 200.241 81.875 199.741 81.875C199.07 81.875 198.462 81.7178 197.917 81.4034C197.375 81.0852 196.943 80.6117 196.621 79.983C196.303 79.3504 196.144 78.5587 196.144 77.608C196.144 76.6496 196.303 75.8409 196.621 75.1818C196.943 74.5189 197.377 74.017 197.923 73.6761C198.468 73.3314 199.076 73.1591 199.746 73.1591C200.258 73.1591 200.678 73.2462 201.008 73.4205C201.341 73.5909 201.606 73.7973 201.803 74.0398C202 74.2784 202.15 74.5038 202.252 74.7159H202.366V73.2727H204.394V82.142C204.394 82.8883 204.216 83.5057 203.86 83.9943C203.504 84.483 203.017 84.8485 202.4 85.0909C201.782 85.3333 201.082 85.4545 200.298 85.4545ZM200.315 80.2614C200.75 80.2614 201.121 80.1553 201.428 79.9432C201.735 79.7311 201.968 79.4261 202.127 79.0284C202.286 78.6307 202.366 78.1534 202.366 77.5966C202.366 77.0473 202.286 76.5663 202.127 76.1534C201.972 75.7405 201.741 75.4205 201.434 75.1932C201.131 74.9621 200.758 74.8466 200.315 74.8466C199.856 74.8466 199.474 74.9659 199.167 75.2045C198.86 75.4432 198.629 75.7708 198.474 76.1875C198.318 76.6004 198.241 77.0701 198.241 77.5966C198.241 78.1307 198.318 78.5985 198.474 79C198.633 79.3977 198.866 79.7083 199.173 79.9318C199.483 80.1515 199.864 80.2614 200.315 80.2614ZM212.982 82.1761C212.429 82.1761 211.931 82.0777 211.488 81.8807C211.049 81.6799 210.7 81.3845 210.442 80.9943C210.189 80.6042 210.062 80.1231 210.062 79.5511C210.062 79.0587 210.153 78.6515 210.335 78.3295C210.516 78.0076 210.764 77.75 211.079 77.5568C211.393 77.3636 211.747 77.2178 212.141 77.1193C212.539 77.017 212.95 76.9432 213.374 76.8977C213.886 76.8447 214.3 76.7973 214.619 76.7557C214.937 76.7102 215.168 76.642 215.312 76.5511C215.46 76.4564 215.533 76.3106 215.533 76.1136V76.0795C215.533 75.6515 215.406 75.3201 215.153 75.0852C214.899 74.8504 214.533 74.733 214.056 74.733C213.552 74.733 213.153 74.8428 212.857 75.0625C212.566 75.2822 212.369 75.5417 212.266 75.8409L210.346 75.5682C210.497 75.0379 210.747 74.5947 211.096 74.2386C211.444 73.8788 211.871 73.6098 212.374 73.4318C212.878 73.25 213.435 73.1591 214.045 73.1591C214.465 73.1591 214.884 73.2083 215.3 73.3068C215.717 73.4053 216.098 73.5682 216.442 73.7955C216.787 74.0189 217.064 74.3239 217.272 74.7102C217.484 75.0966 217.59 75.5795 217.59 76.1591V82H215.613V80.8011H215.545C215.42 81.0436 215.244 81.2708 215.016 81.483C214.793 81.6913 214.511 81.8598 214.17 81.9886C213.833 82.1136 213.437 82.1761 212.982 82.1761ZM213.516 80.6648C213.929 80.6648 214.287 80.5833 214.59 80.4205C214.893 80.2538 215.126 80.0341 215.289 79.7614C215.456 79.4886 215.539 79.1913 215.539 78.8693V77.8409C215.475 77.8939 215.365 77.9432 215.21 77.9886C215.058 78.0341 214.888 78.0739 214.698 78.108C214.509 78.142 214.321 78.1723 214.136 78.1989C213.95 78.2254 213.789 78.2481 213.653 78.267C213.346 78.3087 213.071 78.3769 212.829 78.4716C212.586 78.5663 212.395 78.6989 212.255 78.8693C212.115 79.036 212.045 79.2519 212.045 79.517C212.045 79.8958 212.183 80.1818 212.46 80.375C212.736 80.5682 213.088 80.6648 213.516 80.6648ZM225.428 82L222.962 73.2727H225.059L226.593 79.4091H226.673L228.241 73.2727H230.315L231.883 79.375H231.968L233.479 73.2727H235.582L233.11 82H230.968L229.332 76.1023H229.212L227.576 82H225.428ZM237.018 82V73.2727H239.075V82H237.018ZM238.052 72.0341C237.726 72.0341 237.446 71.9261 237.211 71.7102C236.976 71.4905 236.859 71.2273 236.859 70.9205C236.859 70.6098 236.976 70.3466 237.211 70.1307C237.446 69.911 237.726 69.8011 238.052 69.8011C238.381 69.8011 238.662 69.911 238.893 70.1307C239.128 70.3466 239.245 70.6098 239.245 70.9205C239.245 71.2273 239.128 71.4905 238.893 71.7102C238.662 71.9261 238.381 72.0341 238.052 72.0341ZM248.087 75.5795L246.212 75.7841C246.159 75.5947 246.067 75.4167 245.934 75.25C245.805 75.0833 245.631 74.9489 245.411 74.8466C245.192 74.7443 244.923 74.6932 244.604 74.6932C244.176 74.6932 243.817 74.786 243.525 74.9716C243.237 75.1572 243.095 75.3977 243.099 75.6932C243.095 75.947 243.188 76.1534 243.377 76.3125C243.57 76.4716 243.888 76.6023 244.332 76.7045L245.82 77.0227C246.646 77.2008 247.26 77.483 247.661 77.8693C248.067 78.2557 248.271 78.7614 248.275 79.3864C248.271 79.9356 248.11 80.4205 247.792 80.8409C247.478 81.2576 247.04 81.5833 246.479 81.8182C245.919 82.053 245.275 82.1705 244.548 82.1705C243.479 82.1705 242.62 81.947 241.968 81.5C241.317 81.0492 240.928 80.4223 240.803 79.6193L242.809 79.4261C242.9 79.8201 243.093 80.1174 243.388 80.3182C243.684 80.5189 244.068 80.6193 244.542 80.6193C245.031 80.6193 245.423 80.5189 245.718 80.3182C246.017 80.1174 246.167 79.8693 246.167 79.5739C246.167 79.3239 246.07 79.1174 245.877 78.9545C245.688 78.7917 245.392 78.6667 244.991 78.5795L243.502 78.267C242.665 78.0928 242.046 77.7992 241.644 77.3864C241.243 76.9697 241.044 76.4432 241.048 75.8068C241.044 75.2689 241.19 74.803 241.485 74.4091C241.784 74.0114 242.199 73.7045 242.729 73.4886C243.263 73.2689 243.879 73.1591 244.576 73.1591C245.599 73.1591 246.404 73.3769 246.991 73.8125C247.582 74.2481 247.947 74.8371 248.087 75.5795ZM252.028 76.8864V82H249.971V70.3636H251.982V74.7557H252.085C252.289 74.2633 252.605 73.875 253.033 73.5909C253.465 73.303 254.014 73.1591 254.681 73.1591C255.287 73.1591 255.816 73.286 256.266 73.5398C256.717 73.7936 257.066 74.1648 257.312 74.6534C257.562 75.142 257.687 75.7386 257.687 76.4432V82H255.63V76.7614C255.63 76.1742 255.478 75.7178 255.175 75.392C254.876 75.0625 254.456 74.8977 253.914 74.8977C253.55 74.8977 253.225 74.9773 252.937 75.1364C252.653 75.2917 252.429 75.517 252.266 75.8125C252.107 76.108 252.028 76.4659 252.028 76.8864ZM261.84 70.3636V82H259.783V70.3636H261.84ZM263.955 82V73.2727H266.012V82H263.955ZM264.989 72.0341C264.664 72.0341 264.383 71.9261 264.148 71.7102C263.914 71.4905 263.796 71.2273 263.796 70.9205C263.796 70.6098 263.914 70.3466 264.148 70.1307C264.383 69.911 264.664 69.8011 264.989 69.8011C265.319 69.8011 265.599 69.911 265.83 70.1307C266.065 70.3466 266.183 70.6098 266.183 70.9205C266.183 71.2273 266.065 71.4905 265.83 71.7102C265.599 71.9261 265.319 72.0341 264.989 72.0341ZM275.025 75.5795L273.15 75.7841C273.097 75.5947 273.004 75.4167 272.871 75.25C272.743 75.0833 272.568 74.9489 272.349 74.8466C272.129 74.7443 271.86 74.6932 271.542 74.6932C271.114 74.6932 270.754 74.786 270.462 74.9716C270.174 75.1572 270.032 75.3977 270.036 75.6932C270.032 75.947 270.125 76.1534 270.315 76.3125C270.508 76.4716 270.826 76.6023 271.269 76.7045L272.758 77.0227C273.584 77.2008 274.197 77.483 274.599 77.8693C275.004 78.2557 275.209 78.7614 275.212 79.3864C275.209 79.9356 275.048 80.4205 274.729 80.8409C274.415 81.2576 273.978 81.5833 273.417 81.8182C272.856 82.053 272.212 82.1705 271.485 82.1705C270.417 82.1705 269.557 81.947 268.906 81.5C268.254 81.0492 267.866 80.4223 267.741 79.6193L269.746 79.4261C269.837 79.8201 270.031 80.1174 270.326 80.3182C270.621 80.5189 271.006 80.6193 271.479 80.6193C271.968 80.6193 272.36 80.5189 272.656 80.3182C272.955 80.1174 273.104 79.8693 273.104 79.5739C273.104 79.3239 273.008 79.1174 272.815 78.9545C272.625 78.7917 272.33 78.6667 271.928 78.5795L270.44 78.267C269.603 78.0928 268.983 77.7992 268.582 77.3864C268.18 76.9697 267.981 76.4432 267.985 75.8068C267.981 75.2689 268.127 74.803 268.423 74.4091C268.722 74.0114 269.137 73.7045 269.667 73.4886C270.201 73.2689 270.817 73.1591 271.513 73.1591C272.536 73.1591 273.341 73.3769 273.928 73.8125C274.519 74.2481 274.885 74.8371 275.025 75.5795ZM281.266 73.2727V74.8636H276.249V73.2727H281.266ZM277.488 71.1818H279.545V79.375C279.545 79.6515 279.586 79.8636 279.67 80.0114C279.757 80.1553 279.871 80.2538 280.011 80.3068C280.151 80.3598 280.306 80.3864 280.477 80.3864C280.605 80.3864 280.723 80.3769 280.829 80.358C280.939 80.339 281.022 80.322 281.079 80.3068L281.425 81.9148C281.316 81.9527 281.158 81.9943 280.954 82.0398C280.753 82.0852 280.507 82.1117 280.215 82.1193C279.7 82.1345 279.236 82.0568 278.823 81.8864C278.41 81.7121 278.083 81.4432 277.84 81.0795C277.602 80.7159 277.484 80.2614 277.488 79.7159V71.1818Z" fill="#111827"/>
<path d="M63.482 102.818H64.8939L67.7178 107.571H67.8371L70.661 102.818H72.0729L68.3939 108.804V113H67.161V108.804L63.482 102.818ZM75.5306 113.159C74.8412 113.159 74.2364 112.995 73.716 112.667C73.199 112.339 72.7946 111.88 72.5029 111.29C72.2146 110.7 72.0704 110.01 72.0704 109.222C72.0704 108.426 72.2146 107.732 72.5029 107.138C72.7946 106.545 73.199 106.085 73.716 105.756C74.2364 105.428 74.8412 105.264 75.5306 105.264C76.22 105.264 76.8232 105.428 77.3403 105.756C77.8606 106.085 78.265 106.545 78.5534 107.138C78.845 107.732 78.9909 108.426 78.9909 109.222C78.9909 110.01 78.845 110.7 78.5534 111.29C78.265 111.88 77.8606 112.339 77.3403 112.667C76.8232 112.995 76.22 113.159 75.5306 113.159ZM75.5306 112.105C76.0543 112.105 76.4852 111.971 76.8232 111.702C77.1613 111.434 77.4115 111.081 77.574 110.643C77.7364 110.206 77.8176 109.732 77.8176 109.222C77.8176 108.711 77.7364 108.236 77.574 107.795C77.4115 107.354 77.1613 106.998 76.8232 106.726C76.4852 106.454 76.0543 106.318 75.5306 106.318C75.007 106.318 74.5761 106.454 74.238 106.726C73.8999 106.998 73.6497 107.354 73.4873 107.795C73.3249 108.236 73.2437 108.711 73.2437 109.222C73.2437 109.732 73.3249 110.206 73.4873 110.643C73.6497 111.081 73.8999 111.434 74.238 111.702C74.5761 111.971 75.007 112.105 75.5306 112.105ZM85.5944 109.878V105.364H86.7677V113H85.5944V111.707H85.5148C85.3358 112.095 85.0574 112.425 84.6796 112.697C84.3018 112.965 83.8245 113.099 83.2478 113.099C82.7705 113.099 82.3463 112.995 81.9751 112.786C81.6038 112.574 81.3122 112.256 81.1001 111.832C80.8879 111.404 80.7819 110.866 80.7819 110.216V105.364H81.9552V110.136C81.9552 110.693 82.1109 111.137 82.4225 111.469C82.7374 111.8 83.1384 111.966 83.6256 111.966C83.9173 111.966 84.2139 111.891 84.5155 111.742C84.8205 111.593 85.0757 111.364 85.2812 111.056C85.49 110.748 85.5944 110.355 85.5944 109.878ZM94.0274 108.406V113H92.8541V102.818H94.0274V106.557H94.1269C94.3058 106.162 94.5743 105.849 94.9323 105.617C95.2935 105.382 95.7741 105.264 96.374 105.264C96.8944 105.264 97.3501 105.369 97.7412 105.577C98.1323 105.783 98.4356 106.099 98.651 106.527C98.8698 106.951 98.9791 107.491 98.9791 108.148V113H97.8058V108.227C97.8058 107.621 97.6484 107.152 97.3335 106.82C97.022 106.486 96.5895 106.318 96.036 106.318C95.6515 106.318 95.3068 106.399 95.0019 106.562C94.7003 106.724 94.4616 106.961 94.286 107.273C94.1136 107.584 94.0274 107.962 94.0274 108.406ZM103.373 113.179C102.889 113.179 102.45 113.088 102.055 112.906C101.661 112.72 101.348 112.453 101.116 112.105C100.884 111.754 100.768 111.33 100.768 110.832C100.768 110.395 100.854 110.04 101.026 109.768C101.199 109.493 101.429 109.278 101.717 109.122C102.006 108.966 102.324 108.85 102.672 108.774C103.023 108.695 103.376 108.632 103.731 108.585C104.195 108.526 104.571 108.481 104.859 108.451C105.151 108.418 105.363 108.363 105.496 108.287C105.632 108.211 105.699 108.078 105.699 107.889V107.849C105.699 107.359 105.565 106.978 105.297 106.706C105.032 106.434 104.629 106.298 104.089 106.298C103.529 106.298 103.089 106.421 102.771 106.666C102.453 106.911 102.229 107.173 102.1 107.452L100.986 107.054C101.185 106.59 101.45 106.229 101.782 105.97C102.117 105.708 102.481 105.526 102.876 105.423C103.273 105.317 103.664 105.264 104.049 105.264C104.294 105.264 104.576 105.294 104.894 105.354C105.216 105.41 105.525 105.528 105.824 105.707C106.125 105.886 106.376 106.156 106.574 106.517C106.773 106.878 106.873 107.362 106.873 107.969V113H105.699V111.966H105.64C105.56 112.132 105.428 112.309 105.242 112.498C105.056 112.687 104.81 112.848 104.501 112.98C104.193 113.113 103.817 113.179 103.373 113.179ZM103.552 112.125C104.016 112.125 104.407 112.034 104.725 111.852C105.047 111.669 105.289 111.434 105.451 111.146C105.617 110.857 105.699 110.554 105.699 110.236V109.162C105.65 109.222 105.54 109.276 105.371 109.326C105.206 109.372 105.013 109.414 104.795 109.45C104.579 109.483 104.369 109.513 104.163 109.54C103.961 109.563 103.797 109.583 103.671 109.599C103.366 109.639 103.081 109.704 102.816 109.793C102.554 109.879 102.342 110.01 102.18 110.186C102.021 110.358 101.941 110.594 101.941 110.892C101.941 111.3 102.092 111.608 102.393 111.817C102.698 112.022 103.084 112.125 103.552 112.125ZM114.985 105.364L112.161 113H110.968L108.144 105.364H109.417L111.525 111.449H111.604L113.712 105.364H114.985ZM119.462 113.159C118.726 113.159 118.092 112.997 117.558 112.672C117.028 112.344 116.618 111.886 116.33 111.3C116.045 110.71 115.902 110.024 115.902 109.241C115.902 108.459 116.045 107.77 116.33 107.173C116.618 106.573 117.019 106.106 117.533 105.771C118.05 105.433 118.653 105.264 119.343 105.264C119.741 105.264 120.133 105.33 120.521 105.463C120.909 105.596 121.262 105.811 121.58 106.109C121.898 106.404 122.152 106.795 122.341 107.283C122.53 107.77 122.624 108.37 122.624 109.082V109.58H116.738V108.565H121.431C121.431 108.134 121.345 107.75 121.172 107.412C121.003 107.074 120.761 106.807 120.446 106.612C120.135 106.416 119.767 106.318 119.343 106.318C118.875 106.318 118.471 106.434 118.13 106.666C117.792 106.895 117.531 107.193 117.349 107.561C117.167 107.929 117.076 108.323 117.076 108.744V109.42C117.076 109.997 117.175 110.486 117.374 110.887C117.576 111.285 117.856 111.588 118.214 111.797C118.572 112.002 118.988 112.105 119.462 112.105C119.77 112.105 120.049 112.062 120.297 111.976C120.549 111.886 120.766 111.754 120.949 111.578C121.131 111.399 121.272 111.177 121.371 110.912L122.505 111.23C122.385 111.615 122.185 111.953 121.903 112.244C121.621 112.533 121.273 112.758 120.859 112.92C120.445 113.08 119.979 113.159 119.462 113.159ZM125.582 108.406V113H124.409V105.364H125.542V106.557H125.642C125.821 106.169 126.093 105.857 126.457 105.622C126.822 105.384 127.292 105.264 127.869 105.264C128.386 105.264 128.839 105.37 129.226 105.582C129.614 105.791 129.916 106.109 130.131 106.537C130.347 106.961 130.454 107.498 130.454 108.148V113H129.281V108.227C129.281 107.627 129.125 107.16 128.814 106.825C128.502 106.487 128.075 106.318 127.531 106.318C127.156 106.318 126.822 106.399 126.527 106.562C126.235 106.724 126.005 106.961 125.836 107.273C125.667 107.584 125.582 107.962 125.582 108.406ZM133.632 102.818V103.713C133.632 103.985 133.583 104.275 133.483 104.583C133.387 104.888 133.245 105.185 133.056 105.473C132.87 105.758 132.645 106.007 132.38 106.219L131.743 105.702C131.952 105.403 132.133 105.094 132.285 104.772C132.441 104.447 132.519 104.101 132.519 103.733V102.818H133.632ZM138.708 105.364V106.358H134.751V105.364H138.708ZM135.904 103.534H137.078V110.812C137.078 111.144 137.126 111.393 137.222 111.558C137.321 111.721 137.447 111.83 137.6 111.886C137.755 111.939 137.92 111.966 138.092 111.966C138.221 111.966 138.327 111.959 138.41 111.946C138.493 111.929 138.559 111.916 138.609 111.906L138.848 112.96C138.768 112.99 138.657 113.02 138.514 113.05C138.372 113.083 138.191 113.099 137.973 113.099C137.641 113.099 137.316 113.028 136.998 112.886C136.683 112.743 136.421 112.526 136.213 112.234C136.007 111.943 135.904 111.575 135.904 111.131V103.534ZM146.658 113.179C146.174 113.179 145.735 113.088 145.34 112.906C144.946 112.72 144.633 112.453 144.401 112.105C144.169 111.754 144.053 111.33 144.053 110.832C144.053 110.395 144.139 110.04 144.311 109.768C144.484 109.493 144.714 109.278 145.002 109.122C145.291 108.966 145.609 108.85 145.957 108.774C146.308 108.695 146.661 108.632 147.016 108.585C147.48 108.526 147.856 108.481 148.144 108.451C148.436 108.418 148.648 108.363 148.781 108.287C148.917 108.211 148.985 108.078 148.985 107.889V107.849C148.985 107.359 148.85 106.978 148.582 106.706C148.317 106.434 147.914 106.298 147.374 106.298C146.814 106.298 146.375 106.421 146.056 106.666C145.738 106.911 145.514 107.173 145.385 107.452L144.272 107.054C144.47 106.59 144.736 106.229 145.067 105.97C145.402 105.708 145.766 105.526 146.161 105.423C146.559 105.317 146.95 105.264 147.334 105.264C147.579 105.264 147.861 105.294 148.179 105.354C148.501 105.41 148.811 105.528 149.109 105.707C149.411 105.886 149.661 106.156 149.86 106.517C150.059 106.878 150.158 107.362 150.158 107.969V113H148.985V111.966H148.925C148.845 112.132 148.713 112.309 148.527 112.498C148.342 112.687 148.095 112.848 147.786 112.98C147.478 113.113 147.102 113.179 146.658 113.179ZM146.837 112.125C147.301 112.125 147.692 112.034 148.01 111.852C148.332 111.669 148.574 111.434 148.736 111.146C148.902 110.857 148.985 110.554 148.985 110.236V109.162C148.935 109.222 148.826 109.276 148.657 109.326C148.491 109.372 148.299 109.414 148.08 109.45C147.864 109.483 147.654 109.513 147.448 109.54C147.246 109.563 147.082 109.583 146.956 109.599C146.651 109.639 146.366 109.704 146.101 109.793C145.839 109.879 145.627 110.01 145.465 110.186C145.306 110.358 145.226 110.594 145.226 110.892C145.226 111.3 145.377 111.608 145.679 111.817C145.983 112.022 146.37 112.125 146.837 112.125ZM155.183 113.159C154.547 113.159 153.985 112.998 153.498 112.677C153.01 112.352 152.629 111.895 152.354 111.305C152.079 110.711 151.941 110.01 151.941 109.202C151.941 108.4 152.079 107.704 152.354 107.114C152.629 106.524 153.012 106.068 153.503 105.746C153.993 105.425 154.56 105.264 155.203 105.264C155.7 105.264 156.093 105.347 156.381 105.513C156.673 105.675 156.895 105.861 157.047 106.07C157.203 106.275 157.324 106.444 157.41 106.577H157.51V102.818H158.683V113H157.549V111.827H157.41C157.324 111.966 157.201 112.142 157.042 112.354C156.883 112.562 156.656 112.75 156.361 112.915C156.066 113.078 155.674 113.159 155.183 113.159ZM155.342 112.105C155.813 112.105 156.21 111.982 156.535 111.737C156.86 111.489 157.107 111.146 157.276 110.708C157.445 110.267 157.53 109.759 157.53 109.182C157.53 108.612 157.447 108.113 157.281 107.685C157.115 107.254 156.87 106.92 156.545 106.681C156.22 106.439 155.819 106.318 155.342 106.318C154.845 106.318 154.431 106.446 154.099 106.701C153.771 106.953 153.524 107.296 153.358 107.73C153.196 108.161 153.115 108.645 153.115 109.182C153.115 109.725 153.198 110.219 153.363 110.663C153.532 111.104 153.781 111.455 154.109 111.717C154.441 111.976 154.852 112.105 155.342 112.105ZM163.878 113.159C163.242 113.159 162.68 112.998 162.193 112.677C161.706 112.352 161.325 111.895 161.049 111.305C160.774 110.711 160.637 110.01 160.637 109.202C160.637 108.4 160.774 107.704 161.049 107.114C161.325 106.524 161.707 106.068 162.198 105.746C162.688 105.425 163.255 105.264 163.898 105.264C164.395 105.264 164.788 105.347 165.076 105.513C165.368 105.675 165.59 105.861 165.743 106.07C165.898 106.275 166.019 106.444 166.106 106.577H166.205V102.818H167.378V113H166.245V111.827H166.106C166.019 111.966 165.897 112.142 165.738 112.354C165.579 112.562 165.352 112.75 165.057 112.915C164.762 113.078 164.369 113.159 163.878 113.159ZM164.037 112.105C164.508 112.105 164.906 111.982 165.231 111.737C165.555 111.489 165.802 111.146 165.971 110.708C166.14 110.267 166.225 109.759 166.225 109.182C166.225 108.612 166.142 108.113 165.976 107.685C165.811 107.254 165.565 106.92 165.241 106.681C164.916 106.439 164.515 106.318 164.037 106.318C163.54 106.318 163.126 106.446 162.794 106.701C162.466 106.953 162.219 107.296 162.054 107.73C161.891 108.161 161.81 108.645 161.81 109.182C161.81 109.725 161.893 110.219 162.059 110.663C162.228 111.104 162.476 111.455 162.804 111.717C163.136 111.976 163.547 112.105 164.037 112.105ZM172.892 113.159C172.156 113.159 171.521 112.997 170.988 112.672C170.457 112.344 170.048 111.886 169.76 111.3C169.475 110.71 169.332 110.024 169.332 109.241C169.332 108.459 169.475 107.77 169.76 107.173C170.048 106.573 170.449 106.106 170.963 105.771C171.48 105.433 172.083 105.264 172.772 105.264C173.17 105.264 173.563 105.33 173.951 105.463C174.339 105.596 174.691 105.811 175.01 106.109C175.328 106.404 175.581 106.795 175.77 107.283C175.959 107.77 176.054 108.37 176.054 109.082V109.58H170.167V108.565H174.861C174.861 108.134 174.774 107.75 174.602 107.412C174.433 107.074 174.191 106.807 173.876 106.612C173.565 106.416 173.197 106.318 172.772 106.318C172.305 106.318 171.901 106.434 171.559 106.666C171.221 106.895 170.961 107.193 170.779 107.561C170.597 107.929 170.505 108.323 170.505 108.744V109.42C170.505 109.997 170.605 110.486 170.804 110.887C171.006 111.285 171.286 111.588 171.644 111.797C172.002 112.002 172.418 112.105 172.892 112.105C173.2 112.105 173.478 112.062 173.727 111.976C173.979 111.886 174.196 111.754 174.378 111.578C174.561 111.399 174.701 111.177 174.801 110.912L175.934 111.23C175.815 111.615 175.615 111.953 175.333 112.244C175.051 112.533 174.703 112.758 174.289 112.92C173.874 113.08 173.409 113.159 172.892 113.159ZM180.722 113.159C180.086 113.159 179.524 112.998 179.037 112.677C178.549 112.352 178.168 111.895 177.893 111.305C177.618 110.711 177.481 110.01 177.481 109.202C177.481 108.4 177.618 107.704 177.893 107.114C178.168 106.524 178.551 106.068 179.042 105.746C179.532 105.425 180.099 105.264 180.742 105.264C181.239 105.264 181.632 105.347 181.92 105.513C182.212 105.675 182.434 105.861 182.586 106.07C182.742 106.275 182.863 106.444 182.949 106.577H183.049V102.818H184.222V113H183.089V111.827H182.949C182.863 111.966 182.741 112.142 182.581 112.354C182.422 112.562 182.195 112.75 181.9 112.915C181.605 113.078 181.213 113.159 180.722 113.159ZM180.881 112.105C181.352 112.105 181.749 111.982 182.074 111.737C182.399 111.489 182.646 111.146 182.815 110.708C182.984 110.267 183.069 109.759 183.069 109.182C183.069 108.612 182.986 108.113 182.82 107.685C182.654 107.254 182.409 106.92 182.084 106.681C181.759 106.439 181.358 106.318 180.881 106.318C180.384 106.318 179.97 106.446 179.638 106.701C179.31 106.953 179.063 107.296 178.897 107.73C178.735 108.161 178.654 108.645 178.654 109.182C178.654 109.725 178.737 110.219 178.902 110.663C179.071 111.104 179.32 111.455 179.648 111.717C179.98 111.976 180.391 112.105 180.881 112.105ZM192.718 113.179C192.235 113.179 191.795 113.088 191.401 112.906C191.007 112.72 190.693 112.453 190.461 112.105C190.229 111.754 190.113 111.33 190.113 110.832C190.113 110.395 190.2 110.04 190.372 109.768C190.544 109.493 190.775 109.278 191.063 109.122C191.351 108.966 191.669 108.85 192.017 108.774C192.369 108.695 192.722 108.632 193.076 108.585C193.54 108.526 193.917 108.481 194.205 108.451C194.497 108.418 194.709 108.363 194.841 108.287C194.977 108.211 195.045 108.078 195.045 107.889V107.849C195.045 107.359 194.911 106.978 194.642 106.706C194.377 106.434 193.975 106.298 193.434 106.298C192.874 106.298 192.435 106.421 192.117 106.666C191.799 106.911 191.575 107.173 191.446 107.452L190.332 107.054C190.531 106.59 190.796 106.229 191.128 105.97C191.462 105.708 191.827 105.526 192.221 105.423C192.619 105.317 193.01 105.264 193.395 105.264C193.64 105.264 193.922 105.294 194.24 105.354C194.561 105.41 194.871 105.528 195.169 105.707C195.471 105.886 195.721 106.156 195.92 106.517C196.119 106.878 196.218 107.362 196.218 107.969V113H195.045V111.966H194.986C194.906 112.132 194.773 112.309 194.588 112.498C194.402 112.687 194.155 112.848 193.847 112.98C193.539 113.113 193.163 113.179 192.718 113.179ZM192.897 112.125C193.361 112.125 193.753 112.034 194.071 111.852C194.392 111.669 194.634 111.434 194.797 111.146C194.962 110.857 195.045 110.554 195.045 110.236V109.162C194.995 109.222 194.886 109.276 194.717 109.326C194.551 109.372 194.359 109.414 194.14 109.45C193.925 109.483 193.714 109.513 193.509 109.54C193.307 109.563 193.143 109.583 193.017 109.599C192.712 109.639 192.427 109.704 192.162 109.793C191.9 109.879 191.688 110.01 191.525 110.186C191.366 110.358 191.287 110.594 191.287 110.892C191.287 111.3 191.437 111.608 191.739 111.817C192.044 112.022 192.43 112.125 192.897 112.125ZM199.533 108.406V113H198.36V105.364H199.494V106.557H199.593C199.772 106.169 200.044 105.857 200.408 105.622C200.773 105.384 201.244 105.264 201.82 105.264C202.337 105.264 202.79 105.37 203.177 105.582C203.565 105.791 203.867 106.109 204.082 106.537C204.298 106.961 204.405 107.498 204.405 108.148V113H203.232V108.227C203.232 107.627 203.076 107.16 202.765 106.825C202.453 106.487 202.026 106.318 201.482 106.318C201.108 106.318 200.773 106.399 200.478 106.562C200.186 106.724 199.956 106.961 199.787 107.273C199.618 107.584 199.533 107.962 199.533 108.406ZM207.032 115.864C206.833 115.864 206.656 115.847 206.5 115.814C206.344 115.784 206.236 115.754 206.177 115.724L206.475 114.69C206.76 114.763 207.012 114.79 207.231 114.77C207.449 114.75 207.643 114.652 207.812 114.477C207.985 114.304 208.142 114.024 208.285 113.636L208.503 113.04L205.679 105.364H206.952L209.06 111.449H209.14L211.248 105.364H212.52L209.279 114.114C209.133 114.508 208.952 114.835 208.737 115.093C208.522 115.355 208.271 115.549 207.986 115.675C207.705 115.801 207.386 115.864 207.032 115.864ZM219.737 113L217.41 105.364H218.643L220.293 111.21H220.373L222.004 105.364H223.256L224.867 111.19H224.947L226.597 105.364H227.83L225.504 113H224.35L222.68 107.134H222.56L220.89 113H219.737ZM229.381 113V105.364H230.555V113H229.381ZM229.978 104.091C229.749 104.091 229.552 104.013 229.386 103.857C229.224 103.701 229.143 103.514 229.143 103.295C229.143 103.077 229.224 102.889 229.386 102.734C229.552 102.578 229.749 102.5 229.978 102.5C230.207 102.5 230.402 102.578 230.565 102.734C230.73 102.889 230.813 103.077 230.813 103.295C230.813 103.514 230.73 103.701 230.565 103.857C230.402 104.013 230.207 104.091 229.978 104.091ZM238.113 107.074L237.059 107.372C236.993 107.196 236.895 107.026 236.766 106.86C236.64 106.691 236.467 106.552 236.248 106.442C236.03 106.333 235.75 106.278 235.408 106.278C234.941 106.278 234.552 106.386 234.24 106.602C233.932 106.814 233.778 107.084 233.778 107.412C233.778 107.704 233.884 107.934 234.096 108.103C234.308 108.272 234.639 108.413 235.09 108.526L236.224 108.804C236.906 108.97 237.415 109.223 237.75 109.565C238.085 109.903 238.252 110.339 238.252 110.872C238.252 111.31 238.126 111.701 237.874 112.045C237.626 112.39 237.278 112.662 236.83 112.861C236.383 113.06 235.862 113.159 235.269 113.159C234.49 113.159 233.846 112.99 233.335 112.652C232.825 112.314 232.502 111.82 232.366 111.17L233.479 110.892C233.585 111.303 233.786 111.611 234.081 111.817C234.379 112.022 234.769 112.125 235.249 112.125C235.796 112.125 236.23 112.009 236.552 111.777C236.877 111.542 237.039 111.26 237.039 110.932C237.039 110.667 236.946 110.445 236.761 110.266C236.575 110.083 236.29 109.947 235.905 109.858L234.633 109.56C233.933 109.394 233.42 109.137 233.092 108.789C232.767 108.438 232.604 107.999 232.604 107.472C232.604 107.041 232.725 106.66 232.967 106.328C233.213 105.997 233.546 105.737 233.967 105.548C234.391 105.359 234.871 105.264 235.408 105.264C236.164 105.264 236.757 105.43 237.188 105.761C237.622 106.093 237.931 106.53 238.113 107.074ZM241.191 108.406V113H240.018V102.818H241.191V106.557H241.291C241.47 106.162 241.738 105.849 242.096 105.617C242.458 105.382 242.938 105.264 243.538 105.264C244.058 105.264 244.514 105.369 244.905 105.577C245.296 105.783 245.6 106.099 245.815 106.527C246.034 106.951 246.143 107.491 246.143 108.148V113H244.97V108.227C244.97 107.621 244.812 107.152 244.498 106.82C244.186 106.486 243.754 106.318 243.2 106.318C242.816 106.318 242.471 106.399 242.166 106.562C241.864 106.724 241.626 106.961 241.45 107.273C241.278 107.584 241.191 107.962 241.191 108.406ZM249.463 102.818V113H248.29V102.818H249.463ZM251.612 113V105.364H252.785V113H251.612ZM252.209 104.091C251.98 104.091 251.783 104.013 251.617 103.857C251.455 103.701 251.373 103.514 251.373 103.295C251.373 103.077 251.455 102.889 251.617 102.734C251.783 102.578 251.98 102.5 252.209 102.5C252.437 102.5 252.633 102.578 252.795 102.734C252.961 102.889 253.044 103.077 253.044 103.295C253.044 103.514 252.961 103.701 252.795 103.857C252.633 104.013 252.437 104.091 252.209 104.091ZM260.343 107.074L259.289 107.372C259.223 107.196 259.125 107.026 258.996 106.86C258.87 106.691 258.698 106.552 258.479 106.442C258.26 106.333 257.98 106.278 257.639 106.278C257.171 106.278 256.782 106.386 256.47 106.602C256.162 106.814 256.008 107.084 256.008 107.412C256.008 107.704 256.114 107.934 256.326 108.103C256.538 108.272 256.87 108.413 257.321 108.526L258.454 108.804C259.137 108.97 259.646 109.223 259.98 109.565C260.315 109.903 260.483 110.339 260.483 110.872C260.483 111.31 260.357 111.701 260.105 112.045C259.856 112.39 259.508 112.662 259.061 112.861C258.613 113.06 258.093 113.159 257.5 113.159C256.721 113.159 256.076 112.99 255.566 112.652C255.055 112.314 254.732 111.82 254.596 111.17L255.71 110.892C255.816 111.303 256.016 111.611 256.311 111.817C256.61 112.022 256.999 112.125 257.48 112.125C258.027 112.125 258.461 112.009 258.782 111.777C259.107 111.542 259.269 111.26 259.269 110.932C259.269 110.667 259.177 110.445 258.991 110.266C258.805 110.083 258.52 109.947 258.136 109.858L256.863 109.56C256.164 109.394 255.65 109.137 255.322 108.789C254.997 108.438 254.835 107.999 254.835 107.472C254.835 107.041 254.956 106.66 255.198 106.328C255.443 105.997 255.776 105.737 256.197 105.548C256.621 105.359 257.102 105.264 257.639 105.264C258.394 105.264 258.988 105.43 259.419 105.761C259.853 106.093 260.161 106.53 260.343 107.074ZM265.57 105.364V106.358H261.612V105.364H265.57ZM262.766 103.534H263.939V110.812C263.939 111.144 263.987 111.393 264.083 111.558C264.183 111.721 264.309 111.83 264.461 111.886C264.617 111.939 264.781 111.966 264.953 111.966C265.082 111.966 265.189 111.959 265.271 111.946C265.354 111.929 265.421 111.916 265.47 111.906L265.709 112.96C265.629 112.99 265.518 113.02 265.376 113.05C265.233 113.083 265.053 113.099 264.834 113.099C264.502 113.099 264.178 113.028 263.859 112.886C263.545 112.743 263.283 112.526 263.074 112.234C262.868 111.943 262.766 111.575 262.766 111.131V103.534ZM272.028 115.864C271.829 115.864 271.652 115.847 271.496 115.814C271.34 115.784 271.232 115.754 271.173 115.724L271.471 114.69C271.756 114.763 272.008 114.79 272.227 114.77C272.445 114.75 272.639 114.652 272.808 114.477C272.981 114.304 273.138 114.024 273.281 113.636L273.499 113.04L270.676 105.364H271.948L274.056 111.449H274.136L276.244 105.364H277.516L274.275 114.114C274.129 114.508 273.948 114.835 273.733 115.093C273.518 115.355 273.267 115.549 272.982 115.675C272.701 115.801 272.382 115.864 272.028 115.864ZM281.993 113.159C281.258 113.159 280.623 112.997 280.089 112.672C279.559 112.344 279.15 111.886 278.861 111.3C278.576 110.71 278.434 110.024 278.434 109.241C278.434 108.459 278.576 107.77 278.861 107.173C279.15 106.573 279.551 106.106 280.064 105.771C280.581 105.433 281.185 105.264 281.874 105.264C282.272 105.264 282.665 105.33 283.052 105.463C283.44 105.596 283.793 105.811 284.111 106.109C284.429 106.404 284.683 106.795 284.872 107.283C285.061 107.77 285.155 108.37 285.155 109.082V109.58H279.269V108.565H283.962C283.962 108.134 283.876 107.75 283.704 107.412C283.535 107.074 283.293 106.807 282.978 106.612C282.666 106.416 282.298 106.318 281.874 106.318C281.407 106.318 281.002 106.434 280.661 106.666C280.323 106.895 280.063 107.193 279.88 107.561C279.698 107.929 279.607 108.323 279.607 108.744V109.42C279.607 109.997 279.706 110.486 279.905 110.887C280.107 111.285 280.388 111.588 280.745 111.797C281.103 112.002 281.519 112.105 281.993 112.105C282.302 112.105 282.58 112.062 282.829 111.976C283.08 111.886 283.298 111.754 283.48 111.578C283.662 111.399 283.803 111.177 283.902 110.912L285.036 111.23C284.917 111.615 284.716 111.953 284.434 112.244C284.153 112.533 283.805 112.758 283.39 112.92C282.976 113.08 282.51 113.159 281.993 113.159ZM290.261 105.364V106.358H286.304V105.364H290.261ZM287.457 103.534H288.63V110.812C288.63 111.144 288.678 111.393 288.775 111.558C288.874 111.721 289 111.83 289.152 111.886C289.308 111.939 289.472 111.966 289.645 111.966C289.774 111.966 289.88 111.959 289.963 111.946C290.046 111.929 290.112 111.916 290.162 111.906L290.4 112.96C290.321 112.99 290.21 113.02 290.067 113.05C289.925 113.083 289.744 113.099 289.525 113.099C289.194 113.099 288.869 113.028 288.551 112.886C288.236 112.743 287.974 112.526 287.765 112.234C287.56 111.943 287.457 111.575 287.457 111.131V103.534ZM293.776 111.608L293.696 112.145C293.64 112.523 293.554 112.927 293.438 113.358C293.325 113.789 293.208 114.195 293.085 114.576C292.962 114.957 292.861 115.26 292.782 115.486H291.887C291.93 115.274 291.986 114.994 292.056 114.646C292.125 114.298 292.195 113.908 292.265 113.477C292.338 113.05 292.397 112.612 292.444 112.165L292.503 111.608H293.776ZM48.8941 137V126.818H50.0674V130.577H50.1668C50.253 130.444 50.3723 130.275 50.5248 130.07C50.6805 129.861 50.9026 129.675 51.191 129.513C51.4826 129.347 51.877 129.264 52.3742 129.264C53.0172 129.264 53.584 129.425 54.0745 129.746C54.565 130.068 54.9478 130.524 55.2229 131.114C55.498 131.704 55.6356 132.4 55.6356 133.202C55.6356 134.01 55.498 134.711 55.2229 135.305C54.9478 135.895 54.5667 136.352 54.0795 136.677C53.5922 136.998 53.0305 137.159 52.3941 137.159C51.9036 137.159 51.5108 137.078 51.2158 136.915C50.9208 136.75 50.6938 136.562 50.5347 136.354C50.3756 136.142 50.253 135.966 50.1668 135.827H50.0276V137H48.8941ZM50.0475 133.182C50.0475 133.759 50.132 134.267 50.301 134.708C50.4701 135.146 50.717 135.489 51.0418 135.737C51.3666 135.982 51.7644 136.105 52.235 136.105C52.7255 136.105 53.1349 135.976 53.463 135.717C53.7944 135.455 54.043 135.104 54.2087 134.663C54.3778 134.219 54.4623 133.725 54.4623 133.182C54.4623 132.645 54.3794 132.161 54.2137 131.73C54.0513 131.296 53.8044 130.953 53.4729 130.701C53.1448 130.446 52.7322 130.318 52.235 130.318C51.7577 130.318 51.3567 130.439 51.0319 130.681C50.7071 130.92 50.4618 131.254 50.2961 131.685C50.1304 132.113 50.0475 132.612 50.0475 133.182ZM62.2428 133.878V129.364H63.4161V137H62.2428V135.707H62.1633C61.9843 136.095 61.7059 136.425 61.328 136.697C60.9502 136.965 60.4729 137.099 59.8962 137.099C59.4189 137.099 58.9947 136.995 58.6235 136.786C58.2523 136.574 57.9606 136.256 57.7485 135.832C57.5364 135.404 57.4303 134.866 57.4303 134.216V129.364H58.6036V134.136C58.6036 134.693 58.7594 135.137 59.0709 135.469C59.3858 135.8 59.7868 135.966 60.2741 135.966C60.5657 135.966 60.8624 135.891 61.164 135.742C61.4689 135.593 61.7241 135.364 61.9296 135.056C62.1384 134.748 62.2428 134.355 62.2428 133.878ZM68.8861 129.364V130.358H64.9287V129.364H68.8861ZM66.0821 127.534H67.2554V134.812C67.2554 135.144 67.3035 135.393 67.3996 135.558C67.499 135.721 67.625 135.83 67.7774 135.886C67.9332 135.939 68.0973 135.966 68.2696 135.966C68.3989 135.966 68.5049 135.959 68.5878 135.946C68.6707 135.929 68.7369 135.916 68.7867 135.906L69.0253 136.96C68.9458 136.99 68.8347 137.02 68.6922 137.05C68.5497 137.083 68.3691 137.099 68.1503 137.099C67.8189 137.099 67.4941 137.028 67.1759 136.886C66.861 136.743 66.5992 136.526 66.3904 136.234C66.1849 135.943 66.0821 135.575 66.0821 135.131V127.534ZM77.6908 137.159C77.0014 137.159 76.3965 136.995 75.8762 136.667C75.3591 136.339 74.9548 135.88 74.6631 135.29C74.3747 134.7 74.2306 134.01 74.2306 133.222C74.2306 132.426 74.3747 131.732 74.6631 131.138C74.9548 130.545 75.3591 130.085 75.8762 129.756C76.3965 129.428 77.0014 129.264 77.6908 129.264C78.3802 129.264 78.9834 129.428 79.5004 129.756C80.0208 130.085 80.4252 130.545 80.7135 131.138C81.0052 131.732 81.151 132.426 81.151 133.222C81.151 134.01 81.0052 134.7 80.7135 135.29C80.4252 135.88 80.0208 136.339 79.5004 136.667C78.9834 136.995 78.3802 137.159 77.6908 137.159ZM77.6908 136.105C78.2145 136.105 78.6453 135.971 78.9834 135.702C79.3215 135.434 79.5717 135.081 79.7341 134.643C79.8965 134.206 79.9777 133.732 79.9777 133.222C79.9777 132.711 79.8965 132.236 79.7341 131.795C79.5717 131.354 79.3215 130.998 78.9834 130.726C78.6453 130.454 78.2145 130.318 77.6908 130.318C77.1671 130.318 76.7362 130.454 76.3982 130.726C76.0601 130.998 75.8099 131.354 75.6475 131.795C75.4851 132.236 75.4039 132.711 75.4039 133.222C75.4039 133.732 75.4851 134.206 75.6475 134.643C75.8099 135.081 76.0601 135.434 76.3982 135.702C76.7362 135.971 77.1671 136.105 77.6908 136.105ZM84.1153 132.406V137H82.942V129.364H84.0756V130.557H84.175C84.354 130.169 84.6257 129.857 84.9903 129.622C85.3549 129.384 85.8256 129.264 86.4023 129.264C86.9193 129.264 87.3717 129.37 87.7595 129.582C88.1473 129.791 88.4489 130.109 88.6643 130.537C88.8798 130.961 88.9875 131.498 88.9875 132.148V137H87.8142V132.227C87.8142 131.627 87.6584 131.16 87.3469 130.825C87.0353 130.487 86.6077 130.318 86.0642 130.318C85.6897 130.318 85.3549 130.399 85.0599 130.562C84.7683 130.724 84.5379 130.961 84.3689 131.273C84.1998 131.584 84.1153 131.962 84.1153 132.406ZM94.2338 137.159C93.5178 137.159 92.9014 136.99 92.3843 136.652C91.8673 136.314 91.4695 135.848 91.1911 135.255C90.9127 134.662 90.7735 133.984 90.7735 133.222C90.7735 132.446 90.916 131.762 91.2011 131.168C91.4894 130.572 91.8905 130.106 92.4042 129.771C92.9213 129.433 93.5245 129.264 94.2139 129.264C94.7508 129.264 95.2347 129.364 95.6656 129.562C96.0964 129.761 96.4494 130.04 96.7245 130.398C96.9996 130.756 97.1703 131.173 97.2366 131.651H96.0633C95.9738 131.303 95.7749 130.994 95.4667 130.726C95.1618 130.454 94.7508 130.318 94.2338 130.318C93.7764 130.318 93.3753 130.437 93.0306 130.676C92.6892 130.911 92.4224 131.245 92.2302 131.675C92.0413 132.103 91.9468 132.605 91.9468 133.182C91.9468 133.772 92.0396 134.286 92.2252 134.723C92.4142 135.161 92.6793 135.5 93.0207 135.742C93.3654 135.984 93.7697 136.105 94.2338 136.105C94.5387 136.105 94.8154 136.052 95.064 135.946C95.3126 135.84 95.5231 135.688 95.6954 135.489C95.8677 135.29 95.9904 135.051 96.0633 134.773H97.2366C97.1703 135.223 97.0062 135.629 96.7444 135.991C96.4859 136.349 96.1428 136.634 95.7153 136.846C95.291 137.055 94.7972 137.159 94.2338 137.159ZM102.153 137.159C101.418 137.159 100.783 136.997 100.249 136.672C99.7191 136.344 99.3097 135.886 99.0214 135.3C98.7364 134.71 98.5938 134.024 98.5938 133.241C98.5938 132.459 98.7364 131.77 99.0214 131.173C99.3097 130.573 99.7108 130.106 100.225 129.771C100.742 129.433 101.345 129.264 102.034 129.264C102.432 129.264 102.825 129.33 103.212 129.463C103.6 129.596 103.953 129.811 104.271 130.109C104.59 130.404 104.843 130.795 105.032 131.283C105.221 131.77 105.315 132.37 105.315 133.082V133.58H99.4291V132.565H104.122C104.122 132.134 104.036 131.75 103.864 131.412C103.695 131.074 103.453 130.807 103.138 130.612C102.826 130.416 102.458 130.318 102.034 130.318C101.567 130.318 101.162 130.434 100.821 130.666C100.483 130.895 100.223 131.193 100.041 131.561C99.8583 131.929 99.7671 132.323 99.7671 132.744V133.42C99.7671 133.997 99.8666 134.486 100.065 134.887C100.268 135.285 100.548 135.588 100.906 135.797C101.264 136.002 101.68 136.105 102.153 136.105C102.462 136.105 102.74 136.062 102.989 135.976C103.241 135.886 103.458 135.754 103.64 135.578C103.822 135.399 103.963 135.177 104.063 134.912L105.196 135.23C105.077 135.615 104.876 135.953 104.595 136.244C104.313 136.533 103.965 136.758 103.551 136.92C103.136 137.08 102.671 137.159 102.153 137.159ZM111.793 139.864C111.595 139.864 111.417 139.847 111.261 139.814C111.106 139.784 110.998 139.754 110.938 139.724L111.237 138.69C111.522 138.763 111.774 138.79 111.992 138.77C112.211 138.75 112.405 138.652 112.574 138.477C112.746 138.304 112.904 138.024 113.046 137.636L113.265 137.04L110.441 129.364H111.714L113.822 135.449H113.901L116.009 129.364H117.282L114.041 138.114C113.895 138.508 113.714 138.835 113.499 139.093C113.283 139.355 113.033 139.549 112.748 139.675C112.466 139.801 112.148 139.864 111.793 139.864ZM121.66 137.159C120.97 137.159 120.365 136.995 119.845 136.667C119.328 136.339 118.924 135.88 118.632 135.29C118.343 134.7 118.199 134.01 118.199 133.222C118.199 132.426 118.343 131.732 118.632 131.138C118.924 130.545 119.328 130.085 119.845 129.756C120.365 129.428 120.97 129.264 121.66 129.264C122.349 129.264 122.952 129.428 123.469 129.756C123.99 130.085 124.394 130.545 124.682 131.138C124.974 131.732 125.12 132.426 125.12 133.222C125.12 134.01 124.974 134.7 124.682 135.29C124.394 135.88 123.99 136.339 123.469 136.667C122.952 136.995 122.349 137.159 121.66 137.159ZM121.66 136.105C122.183 136.105 122.614 135.971 122.952 135.702C123.29 135.434 123.54 135.081 123.703 134.643C123.865 134.206 123.946 133.732 123.946 133.222C123.946 132.711 123.865 132.236 123.703 131.795C123.54 131.354 123.29 130.998 122.952 130.726C122.614 130.454 122.183 130.318 121.66 130.318C121.136 130.318 120.705 130.454 120.367 130.726C120.029 130.998 119.779 131.354 119.616 131.795C119.454 132.236 119.373 132.711 119.373 133.222C119.373 133.732 119.454 134.206 119.616 134.643C119.779 135.081 120.029 135.434 120.367 135.702C120.705 135.971 121.136 136.105 121.66 136.105ZM131.723 133.878V129.364H132.897V137H131.723V135.707H131.644C131.465 136.095 131.186 136.425 130.809 136.697C130.431 136.965 129.953 137.099 129.377 137.099C128.899 137.099 128.475 136.995 128.104 136.786C127.733 136.574 127.441 136.256 127.229 135.832C127.017 135.404 126.911 134.866 126.911 134.216V129.364H128.084V134.136C128.084 134.693 128.24 135.137 128.551 135.469C128.866 135.8 129.267 135.966 129.755 135.966C130.046 135.966 130.343 135.891 130.644 135.742C130.949 135.593 131.205 135.364 131.41 135.056C131.619 134.748 131.723 134.355 131.723 133.878ZM141.867 137.159C141.23 137.159 140.668 136.998 140.181 136.677C139.694 136.352 139.313 135.895 139.038 135.305C138.763 134.711 138.625 134.01 138.625 133.202C138.625 132.4 138.763 131.704 139.038 131.114C139.313 130.524 139.696 130.068 140.186 129.746C140.677 129.425 141.243 129.264 141.886 129.264C142.384 129.264 142.776 129.347 143.065 129.513C143.356 129.675 143.578 129.861 143.731 130.07C143.887 130.275 144.008 130.444 144.094 130.577H144.193V126.818H145.367V137H144.233V135.827H144.094C144.008 135.966 143.885 136.142 143.726 136.354C143.567 136.562 143.34 136.75 143.045 136.915C142.75 137.078 142.357 137.159 141.867 137.159ZM142.026 136.105C142.496 136.105 142.894 135.982 143.219 135.737C143.544 135.489 143.791 135.146 143.96 134.708C144.129 134.267 144.213 133.759 144.213 133.182C144.213 132.612 144.13 132.113 143.965 131.685C143.799 131.254 143.554 130.92 143.229 130.681C142.904 130.439 142.503 130.318 142.026 130.318C141.528 130.318 141.114 130.446 140.783 130.701C140.455 130.953 140.208 131.296 140.042 131.73C139.88 132.161 139.798 132.645 139.798 133.182C139.798 133.725 139.881 134.219 140.047 134.663C140.216 135.104 140.465 135.455 140.793 135.717C141.124 135.976 141.535 136.105 142.026 136.105ZM150.781 137.159C150.091 137.159 149.486 136.995 148.966 136.667C148.449 136.339 148.045 135.88 147.753 135.29C147.465 134.7 147.32 134.01 147.32 133.222C147.32 132.426 147.465 131.732 147.753 131.138C148.045 130.545 148.449 130.085 148.966 129.756C149.486 129.428 150.091 129.264 150.781 129.264C151.47 129.264 152.073 129.428 152.59 129.756C153.111 130.085 153.515 130.545 153.803 131.138C154.095 131.732 154.241 132.426 154.241 133.222C154.241 134.01 154.095 134.7 153.803 135.29C153.515 135.88 153.111 136.339 152.59 136.667C152.073 136.995 151.47 137.159 150.781 137.159ZM150.781 136.105C151.304 136.105 151.735 135.971 152.073 135.702C152.411 135.434 152.662 135.081 152.824 134.643C152.986 134.206 153.068 133.732 153.068 133.222C153.068 132.711 152.986 132.236 152.824 131.795C152.662 131.354 152.411 130.998 152.073 130.726C151.735 130.454 151.304 130.318 150.781 130.318C150.257 130.318 149.826 130.454 149.488 130.726C149.15 130.998 148.9 131.354 148.737 131.795C148.575 132.236 148.494 132.711 148.494 133.222C148.494 133.732 148.575 134.206 148.737 134.643C148.9 135.081 149.15 135.434 149.488 135.702C149.826 135.971 150.257 136.105 150.781 136.105ZM163.29 129.364V130.358H159.333V129.364H163.29ZM160.486 127.534H161.66V134.812C161.66 135.144 161.708 135.393 161.804 135.558C161.903 135.721 162.029 135.83 162.182 135.886C162.338 135.939 162.502 135.966 162.674 135.966C162.803 135.966 162.909 135.959 162.992 135.946C163.075 135.929 163.141 135.916 163.191 135.906L163.43 136.96C163.35 136.99 163.239 137.02 163.097 137.05C162.954 137.083 162.773 137.099 162.555 137.099C162.223 137.099 161.898 137.028 161.58 136.886C161.265 136.743 161.003 136.526 160.795 136.234C160.589 135.943 160.486 135.575 160.486 135.131V127.534ZM166.393 132.406V137H165.219V126.818H166.393V130.557H166.492C166.671 130.162 166.94 129.849 167.297 129.617C167.659 129.382 168.139 129.264 168.739 129.264C169.26 129.264 169.715 129.369 170.106 129.577C170.498 129.783 170.801 130.099 171.016 130.527C171.235 130.951 171.344 131.491 171.344 132.148V137H170.171V132.227C170.171 131.621 170.014 131.152 169.699 130.82C169.387 130.486 168.955 130.318 168.401 130.318C168.017 130.318 167.672 130.399 167.367 130.562C167.065 130.724 166.827 130.961 166.651 131.273C166.479 131.584 166.393 131.962 166.393 132.406ZM176.693 137.159C175.957 137.159 175.322 136.997 174.788 136.672C174.258 136.344 173.849 135.886 173.56 135.3C173.275 134.71 173.133 134.024 173.133 133.241C173.133 132.459 173.275 131.77 173.56 131.173C173.849 130.573 174.25 130.106 174.764 129.771C175.281 129.433 175.884 129.264 176.573 129.264C176.971 129.264 177.364 129.33 177.752 129.463C178.139 129.596 178.492 129.811 178.81 130.109C179.129 130.404 179.382 130.795 179.571 131.283C179.76 131.77 179.854 132.37 179.854 133.082V133.58H173.968V132.565H178.661C178.661 132.134 178.575 131.75 178.403 131.412C178.234 131.074 177.992 130.807 177.677 130.612C177.365 130.416 176.997 130.318 176.573 130.318C176.106 130.318 175.702 130.434 175.36 130.666C175.022 130.895 174.762 131.193 174.58 131.561C174.397 131.929 174.306 132.323 174.306 132.744V133.42C174.306 133.997 174.406 134.486 174.604 134.887C174.807 135.285 175.087 135.588 175.445 135.797C175.803 136.002 176.219 136.105 176.693 136.105C177.001 136.105 177.279 136.062 177.528 135.976C177.78 135.886 177.997 135.754 178.179 135.578C178.361 135.399 178.502 135.177 178.602 134.912L179.735 135.23C179.616 135.615 179.415 135.953 179.134 136.244C178.852 136.533 178.504 136.758 178.09 136.92C177.675 137.08 177.21 137.159 176.693 137.159ZM182.163 139.864C181.964 139.864 181.786 139.847 181.631 139.814C181.475 139.784 181.367 139.754 181.307 139.724L181.606 138.69C181.891 138.763 182.143 138.79 182.361 138.77C182.58 138.75 182.774 138.652 182.943 138.477C183.115 138.304 183.273 138.024 183.415 137.636L183.634 137.04L180.81 129.364H182.083L184.191 135.449H184.271L186.378 129.364H187.651L184.41 138.114C184.264 138.508 184.083 138.835 183.868 139.093C183.652 139.355 183.402 139.549 183.117 139.675C182.835 139.801 182.517 139.864 182.163 139.864ZM194.867 137L192.541 129.364H193.774L195.424 135.21H195.504L197.134 129.364H198.387L199.998 135.19H200.078L201.728 129.364H202.961L200.634 137H199.481L197.811 131.134H197.691L196.021 137H194.867ZM204.512 137V129.364H205.686V137H204.512ZM205.109 128.091C204.88 128.091 204.683 128.013 204.517 127.857C204.355 127.701 204.274 127.514 204.274 127.295C204.274 127.077 204.355 126.889 204.517 126.734C204.683 126.578 204.88 126.5 205.109 126.5C205.338 126.5 205.533 126.578 205.696 126.734C205.861 126.889 205.944 127.077 205.944 127.295C205.944 127.514 205.861 127.701 205.696 127.857C205.533 128.013 205.338 128.091 205.109 128.091ZM209.008 126.818V137H207.835V126.818H209.008ZM212.33 126.818V137H211.157V126.818H212.33ZM223.826 131.074L222.772 131.372C222.705 131.196 222.608 131.026 222.478 130.86C222.352 130.691 222.18 130.552 221.961 130.442C221.743 130.333 221.463 130.278 221.121 130.278C220.654 130.278 220.264 130.386 219.953 130.602C219.645 130.814 219.491 131.084 219.491 131.412C219.491 131.704 219.597 131.934 219.809 132.103C220.021 132.272 220.352 132.413 220.803 132.526L221.937 132.804C222.619 132.97 223.128 133.223 223.463 133.565C223.798 133.903 223.965 134.339 223.965 134.872C223.965 135.31 223.839 135.701 223.587 136.045C223.339 136.39 222.991 136.662 222.543 136.861C222.096 137.06 221.575 137.159 220.982 137.159C220.203 137.159 219.558 136.99 219.048 136.652C218.538 136.314 218.214 135.82 218.079 135.17L219.192 134.892C219.298 135.303 219.499 135.611 219.794 135.817C220.092 136.022 220.482 136.125 220.962 136.125C221.509 136.125 221.943 136.009 222.265 135.777C222.589 135.542 222.752 135.26 222.752 134.932C222.752 134.667 222.659 134.445 222.473 134.266C222.288 134.083 222.003 133.947 221.618 133.858L220.346 133.56C219.646 133.394 219.133 133.137 218.804 132.789C218.48 132.438 218.317 131.999 218.317 131.472C218.317 131.041 218.438 130.66 218.68 130.328C218.925 129.997 219.258 129.737 219.679 129.548C220.104 129.359 220.584 129.264 221.121 129.264C221.877 129.264 222.47 129.43 222.901 129.761C223.335 130.093 223.643 130.53 223.826 131.074ZM226.904 132.406V137H225.731V126.818H226.904V130.557H227.004C227.183 130.162 227.451 129.849 227.809 129.617C228.17 129.382 228.651 129.264 229.251 129.264C229.771 129.264 230.227 129.369 230.618 129.577C231.009 129.783 231.313 130.099 231.528 130.527C231.747 130.951 231.856 131.491 231.856 132.148V137H230.683V132.227C230.683 131.621 230.525 131.152 230.21 130.82C229.899 130.486 229.466 130.318 228.913 130.318C228.528 130.318 228.184 130.399 227.879 130.562C227.577 130.724 227.339 130.961 227.163 131.273C226.991 131.584 226.904 131.962 226.904 132.406ZM237.105 137.159C236.415 137.159 235.811 136.995 235.29 136.667C234.773 136.339 234.369 135.88 234.077 135.29C233.789 134.7 233.645 134.01 233.645 133.222C233.645 132.426 233.789 131.732 234.077 131.138C234.369 130.545 234.773 130.085 235.29 129.756C235.811 129.428 236.415 129.264 237.105 129.264C237.794 129.264 238.397 129.428 238.915 129.756C239.435 130.085 239.839 130.545 240.128 131.138C240.419 131.732 240.565 132.426 240.565 133.222C240.565 134.01 240.419 134.7 240.128 135.29C239.839 135.88 239.435 136.339 238.915 136.667C238.397 136.995 237.794 137.159 237.105 137.159ZM237.105 136.105C237.629 136.105 238.059 135.971 238.397 135.702C238.736 135.434 238.986 135.081 239.148 134.643C239.311 134.206 239.392 133.732 239.392 133.222C239.392 132.711 239.311 132.236 239.148 131.795C238.986 131.354 238.736 130.998 238.397 130.726C238.059 130.454 237.629 130.318 237.105 130.318C236.581 130.318 236.15 130.454 235.812 130.726C235.474 130.998 235.224 131.354 235.062 131.795C234.899 132.236 234.818 132.711 234.818 133.222C234.818 133.732 234.899 134.206 235.062 134.643C235.224 135.081 235.474 135.434 235.812 135.702C236.15 135.971 236.581 136.105 237.105 136.105ZM243.826 137L241.5 129.364H242.733L244.383 135.21H244.463L246.093 129.364H247.346L248.957 135.19H249.037L250.687 129.364H251.92L249.593 137H248.44L246.77 131.134H246.65L244.98 137H243.826ZM262.221 133.878V129.364H263.395V137H262.221V135.707H262.142C261.963 136.095 261.684 136.425 261.307 136.697C260.929 136.965 260.451 137.099 259.875 137.099C259.397 137.099 258.973 136.995 258.602 136.786C258.231 136.574 257.939 136.256 257.727 135.832C257.515 135.404 257.409 134.866 257.409 134.216V129.364H258.582V134.136C258.582 134.693 258.738 135.137 259.049 135.469C259.364 135.8 259.765 135.966 260.253 135.966C260.544 135.966 260.841 135.891 261.142 135.742C261.447 135.593 261.703 135.364 261.908 135.056C262.117 134.748 262.221 134.355 262.221 133.878ZM265.544 139.864V129.364H266.677V130.577H266.816C266.902 130.444 267.022 130.275 267.174 130.07C267.33 129.861 267.552 129.675 267.84 129.513C268.132 129.347 268.527 129.264 269.024 129.264C269.667 129.264 270.233 129.425 270.724 129.746C271.215 130.068 271.597 130.524 271.872 131.114C272.148 131.704 272.285 132.4 272.285 133.202C272.285 134.01 272.148 134.711 271.872 135.305C271.597 135.895 271.216 136.352 270.729 136.677C270.242 136.998 269.68 137.159 269.044 137.159C268.553 137.159 268.16 137.078 267.865 136.915C267.57 136.75 267.343 136.562 267.184 136.354C267.025 136.142 266.902 135.966 266.816 135.827H266.717V139.864H265.544ZM266.697 133.182C266.697 133.759 266.782 134.267 266.951 134.708C267.12 135.146 267.367 135.489 267.691 135.737C268.016 135.982 268.414 136.105 268.884 136.105C269.375 136.105 269.784 135.976 270.112 135.717C270.444 135.455 270.693 135.104 270.858 134.663C271.027 134.219 271.112 133.725 271.112 133.182C271.112 132.645 271.029 132.161 270.863 131.73C270.701 131.296 270.454 130.953 270.122 130.701C269.794 130.446 269.382 130.318 268.884 130.318C268.407 130.318 268.006 130.439 267.681 130.681C267.357 130.92 267.111 131.254 266.946 131.685C266.78 132.113 266.697 132.612 266.697 133.182ZM279.186 132.406V137H278.012V126.818H279.186V130.557H279.285C279.464 130.162 279.733 129.849 280.09 129.617C280.452 129.382 280.932 129.264 281.532 129.264C282.053 129.264 282.508 129.369 282.899 129.577C283.291 129.783 283.594 130.099 283.809 130.527C284.028 130.951 284.137 131.491 284.137 132.148V137H282.964V132.227C282.964 131.621 282.807 131.152 282.492 130.82C282.18 130.486 281.748 130.318 281.194 130.318C280.81 130.318 280.465 130.399 280.16 130.562C279.858 130.724 279.62 130.961 279.444 131.273C279.272 131.584 279.186 131.962 279.186 132.406ZM289.486 137.159C288.75 137.159 288.115 136.997 287.581 136.672C287.051 136.344 286.642 135.886 286.353 135.3C286.068 134.71 285.926 134.024 285.926 133.241C285.926 132.459 286.068 131.77 286.353 131.173C286.642 130.573 287.043 130.106 287.557 129.771C288.074 129.433 288.677 129.264 289.366 129.264C289.764 129.264 290.157 129.33 290.544 129.463C290.932 129.596 291.285 129.811 291.603 130.109C291.922 130.404 292.175 130.795 292.364 131.283C292.553 131.77 292.647 132.37 292.647 133.082V133.58H286.761V132.565H291.454C291.454 132.134 291.368 131.75 291.196 131.412C291.027 131.074 290.785 130.807 290.47 130.612C290.158 130.416 289.79 130.318 289.366 130.318C288.899 130.318 288.495 130.434 288.153 130.666C287.815 130.895 287.555 131.193 287.373 131.561C287.19 131.929 287.099 132.323 287.099 132.744V133.42C287.099 133.997 287.199 134.486 287.397 134.887C287.6 135.285 287.88 135.588 288.238 135.797C288.596 136.002 289.012 136.105 289.486 136.105C289.794 136.105 290.072 136.062 290.321 135.976C290.573 135.886 290.79 135.754 290.972 135.578C291.154 135.399 291.295 135.177 291.395 134.912L292.528 135.23C292.409 135.615 292.208 135.953 291.927 136.244C291.645 136.533 291.297 136.758 290.883 136.92C290.468 137.08 290.003 137.159 289.486 137.159ZM294.432 137V129.364H295.566V130.517H295.645C295.785 130.139 296.036 129.833 296.401 129.597C296.766 129.362 297.177 129.244 297.634 129.244C297.72 129.244 297.828 129.246 297.957 129.249C298.086 129.253 298.184 129.258 298.25 129.264V130.457C298.211 130.447 298.12 130.433 297.977 130.413C297.838 130.389 297.69 130.378 297.535 130.378C297.163 130.378 296.832 130.456 296.54 130.612C296.252 130.764 296.023 130.976 295.854 131.248C295.688 131.516 295.606 131.823 295.606 132.168V137H294.432ZM302.611 137.159C301.875 137.159 301.24 136.997 300.706 136.672C300.176 136.344 299.767 135.886 299.478 135.3C299.193 134.71 299.051 134.024 299.051 133.241C299.051 132.459 299.193 131.77 299.478 131.173C299.767 130.573 300.168 130.106 300.682 129.771C301.199 129.433 301.802 129.264 302.491 129.264C302.889 129.264 303.282 129.33 303.669 129.463C304.057 129.596 304.41 129.811 304.728 130.109C305.047 130.404 305.3 130.795 305.489 131.283C305.678 131.77 305.772 132.37 305.772 133.082V133.58H299.886V132.565H304.579C304.579 132.134 304.493 131.75 304.321 131.412C304.152 131.074 303.91 130.807 303.595 130.612C303.283 130.416 302.915 130.318 302.491 130.318C302.024 130.318 301.62 130.434 301.278 130.666C300.94 130.895 300.68 131.193 300.498 131.561C300.315 131.929 300.224 132.323 300.224 132.744V133.42C300.224 133.997 300.324 134.486 300.522 134.887C300.725 135.285 301.005 135.588 301.363 135.797C301.721 136.002 302.137 136.105 302.611 136.105C302.919 136.105 303.197 136.062 303.446 135.976C303.698 135.886 303.915 135.754 304.097 135.578C304.279 135.399 304.42 135.177 304.52 134.912L305.653 135.23C305.534 135.615 305.333 135.953 305.052 136.244C304.77 136.533 304.422 136.758 304.008 136.92C303.593 137.08 303.128 137.159 302.611 137.159ZM308.412 137.08C308.167 137.08 307.957 136.992 307.781 136.816C307.605 136.64 307.517 136.43 307.517 136.185C307.517 135.939 307.605 135.729 307.781 135.553C307.957 135.378 308.167 135.29 308.412 135.29C308.658 135.29 308.868 135.378 309.044 135.553C309.219 135.729 309.307 135.939 309.307 136.185C309.307 136.347 309.266 136.496 309.183 136.632C309.103 136.768 308.996 136.877 308.86 136.96C308.727 137.04 308.578 137.08 308.412 137.08Z" fill="currentcolor"/>
<path d="M191.728 11.2721C198.757 18.3015 198.757 29.6985 191.728 36.7279C184.698 43.7573 173.301 43.7573 166.272 36.7279C159.243 29.6984 159.243 18.3015 166.272 11.2721C173.302 4.24264 184.698 4.24264 191.728 11.2721" stroke="#6B7280" stroke-width="2.5" stroke-linecap="round" stroke-linejoin="round"/>
<path d="M179 33.6639C175.592 33.6799 172.128 31.7839 171 28.2959" stroke="currentColor" stroke-width="2.5" stroke-linecap="round" stroke-linejoin="round"/>
<path d="M189 18.4805C188.21 19.4505 187.13 20.0005 186 20.0005C184.87 20.0005 183.82 19.4505 183 18.4805" stroke="#6B7280" stroke-width="2.5" stroke-linecap="round" stroke-linejoin="round"/>
<path d="M175 18.4805C174.21 19.4505 173.13 20.0005 172 20.0005C170.87 20.0005 169.82 19.4505 169 18.4805" stroke="currentColor" stroke-width="2.5" stroke-linecap="round" stroke-linejoin="round"/>
</svg>
